<svg width="50" height="50" viewBox="0 0 50 50" fill="none" xmlns="http://www.w3.org/2000/svg">
<path d="M35.064 26.382C35.04 22.29 36.894 19.206 40.6379 16.932C38.5439 13.932 35.376 12.282 31.2 11.964C27.246 11.652 22.92 14.268 21.336 14.268C19.662 14.268 15.834 12.072 12.822 12.072C6.60599 12.168 0 17.028 0 26.916C0 29.838 0.533999 32.856 1.602 35.964C3.03 40.0559 8.17799 50.0819 13.548 49.9199C16.356 49.8539 18.342 47.9279 21.996 47.9279C25.542 47.9279 27.378 49.9199 30.51 49.9199C35.928 49.8419 40.5839 40.7279 41.9399 36.624C34.674 33.198 35.064 26.592 35.064 26.382ZM28.758 8.08199C31.8 4.46999 31.524 1.182 31.434 0C28.746 0.156 25.638 1.83 23.868 3.888C21.918 6.09599 20.772 8.82599 21.018 11.904C23.922 12.126 26.574 10.632 28.758 8.08199Z" fill="white"/>
</svg>
