<?xml version="1.0" encoding="UTF-8" standalone="no"?>
<svg
   version="1.1"
   width="576"
   height="576"
   viewBox="0 0 575.99999 576.00001"
   xml:space="preserve"
   id="svg1529"
   xmlns="http://www.w3.org/2000/svg"
   xmlns:svg="http://www.w3.org/2000/svg"><defs
     id="defs244" /><path
     d="M 416,480 A 64,64 0 1 0 544,480 64,64 0 1 0 416,480"
     id="path1482"
     style="fill:#0f9d58;stroke-width:1" /><path
     d="M 192,320 A 96,96 0 1 0 384,320 96,96 0 1 0 192,320"
     id="path1485"
     style="fill:#4285f4;stroke-width:1" /><path
     d="M 0,444.8 C 0,517.24 58.76,576 131.2,576 H 288 V 512 L 127.6,511.6 C 92.4,511.6 64,478.84 64,440 V 368 H 0 Z"
     id="path1488"
     style="fill:#db4437;stroke-width:1" /><path
     d="M 576,195.2 C 576,122.76 517.24,64 444.8,64 H 368 L 448,128 C 483.2,128 512,161.16 512,200 V 320 H 576 Z"
     id="path1491"
     style="fill:#f4b400;stroke-width:1" /><path
     d="M 352,0 H 224 L 176,64 H 131.2 C 58.76,64 0,122.76 0,195.2 V 272 H 64 V 200 C 64,161.16 92.8,128 128,128 H 448 Z"
     id="path1494"
     style="fill:#4285f4;stroke-width:1" /></svg>
